<svg width="99" height="27" viewBox="0 0 99 27" fill="none" xmlns="http://www.w3.org/2000/svg">
<path d="M6.5625 2.59375C7.02083 2.34375 7.54167 2.125 8.125 1.9375C8.70833 1.72917 9.3125 1.57292 9.9375 1.46875C10.5625 1.34375 11.1875 1.27083 11.8125 1.25C12.4583 1.22917 13.0625 1.28125 13.625 1.40625C15.2708 1.76042 16.6562 2.4375 17.7812 3.4375C18.9062 4.4375 19.7708 5.60417 20.375 6.9375C21 8.27083 21.3646 9.70833 21.4688 11.25C21.5938 12.7708 21.4688 14.2396 21.0938 15.6562C20.9688 16.0729 20.7604 16.5521 20.4688 17.0938C20.2188 17.5521 19.875 18.1146 19.4375 18.7812C19 19.4271 18.4271 20.1458 17.7188 20.9375C17.8854 21.3125 18.0521 21.6146 18.2188 21.8438C18.4062 22.0521 18.5833 22.2083 18.75 22.3125C18.9375 22.4375 19.1146 22.5208 19.2812 22.5625C19.4479 22.5833 19.6458 22.5938 19.875 22.5938C20.0625 22.5938 20.2812 22.5833 20.5312 22.5625C20.8021 22.5208 21.0938 22.4583 21.4062 22.375L16.5312 26.4375C16.4688 26.1042 16.3958 25.8125 16.3125 25.5625C16.25 25.3333 16.1979 25.1354 16.1562 24.9688L15.9688 24.5C15.8854 24.3958 15.8021 24.2604 15.7188 24.0938C15.6354 23.9688 15.5417 23.8125 15.4375 23.625C15.3333 23.4375 15.1979 23.2292 15.0312 23C13.7188 23.5 12.5208 23.8229 11.4375 23.9688C10.375 24.1146 9.40625 24.125 8.53125 24C7.65625 23.8958 6.875 23.6979 6.1875 23.4062C5.5 23.0938 4.89583 22.7396 4.375 22.3438C3.16667 21.4062 2.21875 20.1771 1.53125 18.6562C0.760417 16.5729 0.40625 14.6667 0.46875 12.9375C0.552083 11.1875 0.885417 9.63542 1.46875 8.28125C2.05208 6.90625 2.80208 5.73958 3.71875 4.78125C4.65625 3.82292 5.60417 3.09375 6.5625 2.59375ZM11.1875 18.4688C10.875 18.3854 10.5833 18.3542 10.3125 18.375C10.0833 18.3958 9.85417 18.4688 9.625 18.5938C9.39583 18.7188 9.22917 18.9479 9.125 19.2812C9.39583 19.5521 9.64583 19.7812 9.875 19.9688C10.125 20.1354 10.3333 20.2708 10.5 20.375C10.7083 20.5 10.8958 20.6042 11.0625 20.6875C11.3542 20.7917 11.6458 20.875 11.9375 20.9375C12.1875 20.9792 12.4583 21 12.75 21C13.0625 20.9792 13.3542 20.8958 13.625 20.75C13.4167 20.3125 13.1667 19.9479 12.875 19.6562C12.6042 19.3438 12.3438 19.1042 12.0938 18.9375C11.8021 18.7292 11.5 18.5729 11.1875 18.4688ZM7.875 17.3438C8.22917 16.8021 8.61458 16.4167 9.03125 16.1875C9.44792 15.9583 9.84375 15.7917 10.2188 15.6875C10.6562 15.6042 11.1042 15.5729 11.5625 15.5938C12 15.6979 12.4375 15.875 12.875 16.125C13.25 16.3542 13.6458 16.6771 14.0625 17.0938C14.4792 17.4896 14.8646 18.0312 15.2188 18.7188C15.5521 18.2188 15.8021 17.6979 15.9688 17.1562C16.1354 16.6146 16.2604 16.125 16.3438 15.6875C16.4271 15.1667 16.4688 14.6562 16.4688 14.1562C16.4271 13.3854 16.3438 12.5729 16.2188 11.7188C16.0938 10.8646 15.9062 10.0208 15.6562 9.1875C15.4271 8.35417 15.1354 7.5625 14.7812 6.8125C14.4271 6.0625 14 5.41667 13.5 4.875C13.0208 4.33333 12.4583 3.92708 11.8125 3.65625C11.1875 3.38542 10.4792 3.3125 9.6875 3.4375C8.8125 3.5625 8.09375 3.91667 7.53125 4.5C6.98958 5.08333 6.5625 5.77083 6.25 6.5625C5.95833 7.33333 5.77083 8.16667 5.6875 9.0625C5.625 9.9375 5.63542 10.7292 5.71875 11.4375C5.78125 12.0208 5.90625 12.6354 6.09375 13.2812C6.26042 13.8229 6.47917 14.4479 6.75 15.1562C7.02083 15.8646 7.39583 16.5938 7.875 17.3438ZM20.25 2.03125C20.9375 2.11458 21.5625 2.17708 22.125 2.21875C22.6667 2.26042 23.1354 2.30208 23.5312 2.34375C23.9896 2.38542 24.3958 2.41667 24.75 2.4375C25.125 2.4375 25.6042 2.42708 26.1875 2.40625C26.6875 2.38542 27.3229 2.35417 28.0938 2.3125C28.8646 2.27083 29.8125 2.19792 30.9375 2.09375C30.3958 2.40625 29.9479 2.71875 29.5938 3.03125C29.2604 3.34375 29 3.625 28.8125 3.875C28.5833 4.16667 28.4167 4.45833 28.3125 4.75C28.25 5.14583 28.2708 5.91667 28.375 7.0625C28.4167 7.54167 28.4792 8.13542 28.5625 8.84375C28.6667 9.53125 28.7917 10.3542 28.9375 11.3125C29.1042 12.25 29.3021 13.3333 29.5312 14.5625C29.7812 15.7917 30.0625 17.1875 30.375 18.75C30.7917 17.5625 31.1354 16.5104 31.4062 15.5938C31.6771 14.6562 31.9062 13.8542 32.0938 13.1875C32.3021 12.4375 32.4792 11.7708 32.625 11.1875C32.7708 10.5833 32.9479 9.80208 33.1562 8.84375C33.3229 8.03125 33.5417 6.97917 33.8125 5.6875C34.0833 4.39583 34.4167 2.80208 34.8125 0.90625L35.9375 1.0625C36.0417 2.54167 36.1458 3.84375 36.25 4.96875C36.375 6.09375 36.4792 7.05208 36.5625 7.84375C36.6458 8.76042 36.7292 9.55208 36.8125 10.2188C36.8958 10.8229 37.0208 11.5208 37.1875 12.3125C37.3333 12.9792 37.5208 13.8021 37.75 14.7812C37.9792 15.7396 38.2812 16.8229 38.6562 18.0312C39.0312 16.5521 39.3646 15.2292 39.6562 14.0625C39.9688 12.8958 40.2292 11.8646 40.4375 10.9688C40.6667 10.0729 40.8542 9.30208 41 8.65625C41.1667 8.01042 41.3021 7.46875 41.4062 7.03125C41.6354 5.98958 41.7708 5.29167 41.8125 4.9375C41.7917 4.54167 41.6979 4.15625 41.5312 3.78125C41.3854 3.44792 41.1562 3.08333 40.8438 2.6875C40.5312 2.29167 40.0729 1.90625 39.4688 1.53125C40.7396 1.57292 41.7708 1.60417 42.5625 1.625C43.375 1.625 44.0208 1.625 44.5 1.625H45.75H46.875C47.2917 1.625 47.8333 1.625 48.5 1.625C49.1875 1.60417 50.0625 1.57292 51.125 1.53125C50.2083 2.01042 49.4688 2.44792 48.9062 2.84375C48.3438 3.23958 47.9062 3.57292 47.5938 3.84375C47.2188 4.17708 46.9479 4.45833 46.7812 4.6875C46.6146 5.10417 46.3438 6.04167 45.9688 7.5C45.8021 8.125 45.6146 8.90625 45.4062 9.84375C45.1979 10.7604 44.9479 11.8646 44.6562 13.1562C44.3854 14.4479 44.0729 15.9583 43.7188 17.6875C43.3646 19.3958 42.9688 21.3542 42.5312 23.5625L37.125 23L34.8125 13.2812C34.4583 15.0521 34.1771 16.4896 33.9688 17.5938C33.7604 18.6771 33.6042 19.5208 33.5 20.125C33.375 20.8542 33.3021 21.3854 33.2812 21.7188C33.2604 22.0104 33.2396 22.2917 33.2188 22.5625C33.1979 22.7917 33.1667 23.0417 33.125 23.3125C33.1042 23.5833 33.0729 23.8333 33.0312 24.0625H27.5C26.9583 21.6875 26.4688 19.5938 26.0312 17.7812C25.6146 15.9479 25.2396 14.3438 24.9062 12.9688C24.5729 11.5938 24.2812 10.4271 24.0312 9.46875C23.8021 8.51042 23.5938 7.70833 23.4062 7.0625C22.9896 5.5625 22.6875 4.63542 22.5 4.28125C22.3542 4.11458 22.1667 3.91667 21.9375 3.6875C21.75 3.5 21.5208 3.27083 21.25 3C20.9583 2.70833 20.625 2.38542 20.25 2.03125ZM52.3438 2.84375C53.3854 2.90625 54.2604 2.95833 54.9688 3C55.6979 3.02083 56.3021 3.04167 56.7812 3.0625C57.3229 3.08333 57.7812 3.08333 58.1562 3.0625C58.5312 3.04167 59.0417 2.98958 59.6875 2.90625C60.2292 2.84375 60.9479 2.75 61.8438 2.625C62.7604 2.47917 63.8958 2.29167 65.25 2.0625C64.7708 2.54167 64.3958 2.97917 64.125 3.375C63.875 3.75 63.6771 4.07292 63.5312 4.34375C63.3646 4.67708 63.25 4.95833 63.1875 5.1875C63.1458 5.39583 63.1875 5.91667 63.3125 6.75C63.4375 7.58333 63.6146 8.57292 63.8438 9.71875C64.0729 10.8438 64.3229 12.0521 64.5938 13.3438C64.8646 14.6146 65.1354 15.8125 65.4062 16.9375C65.6771 18.0417 65.9167 18.9896 66.125 19.7812C66.3542 20.5521 66.5208 21.0104 66.625 21.1562C66.9375 21.5938 67.1354 21.8854 67.2188 22.0312C67.3021 22.1562 67.4479 22.2708 67.6562 22.375C67.7396 22.4167 67.875 22.4792 68.0625 22.5625C68.2292 22.6458 68.4479 22.75 68.7188 22.875C69.0104 23 69.375 23.1458 69.8125 23.3125C69 23.3542 68.3021 23.3854 67.7188 23.4062C67.1354 23.4062 66.6562 23.4167 66.2812 23.4375C65.8438 23.4583 65.4688 23.4792 65.1562 23.5C64.8438 23.5 64.4688 23.5208 64.0312 23.5625C63.6562 23.6042 63.1667 23.6458 62.5625 23.6875C61.9792 23.7292 61.2917 23.7708 60.5 23.8125C60.9167 23.5208 61.25 23.2604 61.5 23.0312C61.7708 22.7812 61.9792 22.5729 62.125 22.4062C62.2917 22.1979 62.4062 22.0104 62.4688 21.8438C62.5104 21.6562 62.5417 21.375 62.5625 21C62.5833 20.6667 62.5833 20.2292 62.5625 19.6875C62.5417 19.125 62.4896 18.3958 62.4062 17.5L54.1875 18.3438C53.9792 18.6979 53.8229 19.0104 53.7188 19.2812C53.6146 19.5312 53.5417 19.75 53.5 19.9375C53.4375 20.1667 53.4167 20.3542 53.4375 20.5C53.4792 20.6667 53.5521 20.8646 53.6562 21.0938C53.7604 21.3021 53.9062 21.5521 54.0938 21.8438C54.3021 22.1146 54.6042 22.4375 55 22.8125C54.4792 22.7917 53.9479 22.7812 53.4062 22.7812C52.8646 22.7812 52.3646 22.7917 51.9062 22.8125C51.3646 22.8333 50.8333 22.8542 50.3125 22.875C49.7917 22.8958 49.1979 22.9271 48.5312 22.9688C47.9688 23.0104 47.3125 23.0625 46.5625 23.125C45.7917 23.1667 44.9688 23.2292 44.0938 23.3125C44.6354 23.0625 45.0938 22.8125 45.4688 22.5625C45.8438 22.2917 46.1562 22.0417 46.4062 21.8125C46.6979 21.5625 46.9479 21.3229 47.1562 21.0938C47.3021 20.8854 47.5938 20.4062 48.0312 19.6562C48.4688 18.8854 48.9583 17.9792 49.5 16.9375C50.0625 15.8958 50.6458 14.7812 51.25 13.5938C51.875 12.4062 52.4375 11.2917 52.9375 10.25C53.4375 9.1875 53.8438 8.27083 54.1562 7.5C54.4688 6.72917 54.625 6.22917 54.625 6C54.5833 5.72917 54.4792 5.42708 54.3125 5.09375C54.1667 4.80208 53.9375 4.46875 53.625 4.09375C53.3333 3.71875 52.9062 3.30208 52.3438 2.84375ZM62.0312 15.1875C61.9062 14.4583 61.7917 13.8333 61.6875 13.3125C61.5833 12.7708 61.5 12.3229 61.4375 11.9688C61.3542 11.5521 61.2917 11.1875 61.25 10.875C61.1875 10.5833 61.1146 10.2083 61.0312 9.75C60.9479 9.35417 60.8438 8.86458 60.7188 8.28125C60.6146 7.67708 60.4792 6.95833 60.3125 6.125C59.125 8.5 58.1979 10.3438 57.5312 11.6562C56.8854 12.9479 56.4167 13.8958 56.125 14.5C55.7708 15.2083 55.5729 15.625 55.5312 15.75L62.0312 15.1875ZM68.0312 1.84375C68.9688 2.01042 69.7396 2.125 70.3438 2.1875C70.9479 2.25 71.4375 2.30208 71.8125 2.34375C72.25 2.38542 72.5938 2.39583 72.8438 2.375H73.7812C74.1146 2.375 74.5312 2.375 75.0312 2.375C75.5521 2.35417 76.1979 2.34375 76.9688 2.34375C77.4062 3.36458 77.8021 4.30208 78.1562 5.15625C78.5312 6.01042 78.8438 6.73958 79.0938 7.34375C79.3854 8.07292 79.6562 8.72917 79.9062 9.3125C80.1979 10.0417 80.5104 10.8438 80.8438 11.7188C81.1771 12.5938 81.4792 13.4167 81.75 14.1875C82.0417 14.9583 82.2812 15.5938 82.4688 16.0938C82.6562 16.5938 82.75 16.8229 82.75 16.7812C82.75 16.7604 82.7604 16.5521 82.7812 16.1562C82.8021 15.7396 82.8229 15.2292 82.8438 14.625C82.8646 14 82.8854 13.3229 82.9062 12.5938C82.9479 11.8438 82.9688 11.125 82.9688 10.4375C82.9896 9.72917 83 9.08333 83 8.5C83 7.91667 82.9792 7.47917 82.9375 7.1875C82.875 6.83333 82.75 6.42708 82.5625 5.96875C82.3958 5.57292 82.1667 5.10417 81.875 4.5625C81.5833 4 81.1771 3.36458 80.6562 2.65625C81.5104 2.67708 82.2083 2.6875 82.75 2.6875C83.2917 2.6875 83.7292 2.6875 84.0625 2.6875C84.4375 2.6875 84.7292 2.67708 84.9375 2.65625C85.2083 2.65625 85.5417 2.63542 85.9375 2.59375C86.2917 2.55208 86.7292 2.52083 87.25 2.5C87.7917 2.45833 88.4583 2.40625 89.25 2.34375C88.7917 2.76042 88.4271 3.15625 88.1562 3.53125C87.8854 3.90625 87.6667 4.23958 87.5 4.53125C87.3125 4.86458 87.1875 5.17708 87.125 5.46875C87.0417 5.84375 86.9688 6.45833 86.9062 7.3125C86.8646 8.14583 86.8125 9.08333 86.75 10.125C86.7083 11.1667 86.6667 12.25 86.625 13.375C86.5833 14.5 86.5417 15.5312 86.5 16.4688C86.5 17.1771 86.4792 17.9375 86.4375 18.75C86.3958 19.4375 86.3542 20.2188 86.3125 21.0938C86.2708 21.9479 86.2188 22.8125 86.1562 23.6875L83.375 23.75C82.5625 22.3125 81.875 21.0833 81.3125 20.0625C80.7708 19.0208 80.3229 18.1667 79.9688 17.5C79.5729 16.7292 79.2396 16.0833 78.9688 15.5625C78.7396 15.0625 78.4375 14.4896 78.0625 13.8438C77.75 13.3021 77.3542 12.6354 76.875 11.8438C76.4167 11.0521 75.8646 10.1458 75.2188 9.125C75.1562 10.5625 75.125 11.7917 75.125 12.8125C75.1458 13.8125 75.1771 14.6458 75.2188 15.3125C75.2812 16.0833 75.3542 16.7292 75.4375 17.25C75.5417 17.75 75.6875 18.3125 75.875 18.9375C76.0417 19.4792 76.2396 20.1146 76.4688 20.8438C76.7188 21.5729 77.0208 22.3958 77.375 23.3125C76.1458 23.25 75.2292 23.2188 74.625 23.2188H73.6875C73.3958 23.2188 73 23.25 72.5 23.3125C72.0833 23.3542 71.5104 23.4167 70.7812 23.5C70.0729 23.5833 69.1875 23.6979 68.125 23.8438C68.625 23.2396 69.0208 22.6875 69.3125 22.1875C69.625 21.6667 69.8646 21.2292 70.0312 20.875C70.2396 20.4583 70.3854 20.0938 70.4688 19.7812C70.5312 19.4479 70.5729 18.875 70.5938 18.0625C70.6146 17.2292 70.6146 16.2917 70.5938 15.25C70.5938 14.1875 70.5729 13.0729 70.5312 11.9062C70.5104 10.7396 70.4792 9.65625 70.4375 8.65625C70.3958 7.65625 70.3438 6.80208 70.2812 6.09375C70.2396 5.38542 70.2083 4.94792 70.1875 4.78125C70.125 4.51042 70 4.21875 69.8125 3.90625C69.6458 3.63542 69.4271 3.33333 69.1562 3C68.8854 2.64583 68.5104 2.26042 68.0312 1.84375ZM89.0938 2.46875C89.8021 2.55208 90.3958 2.61458 90.875 2.65625C91.375 2.67708 91.7812 2.70833 92.0938 2.75C92.4688 2.79167 92.7604 2.8125 92.9688 2.8125C93.1979 2.83333 93.5417 2.82292 94 2.78125C94.3958 2.73958 94.9271 2.6875 95.5938 2.625C96.2812 2.5625 97.1562 2.46875 98.2188 2.34375C97.7396 2.76042 97.3542 3.16667 97.0625 3.5625C96.7917 3.9375 96.5833 4.27083 96.4375 4.5625C96.25 4.91667 96.1354 5.25 96.0938 5.5625C96.0104 6.0625 95.9375 6.75 95.875 7.625C95.8333 8.47917 95.7917 9.41667 95.75 10.4375C95.7083 11.4583 95.6875 12.5104 95.6875 13.5938C95.6875 14.6771 95.6979 15.7083 95.7188 16.6875C95.7604 17.6458 95.8229 18.5 95.9062 19.25C96.0104 20 96.1354 20.5417 96.2812 20.875C96.4896 21.25 96.7083 21.625 96.9375 22C97.1458 22.3125 97.3958 22.6354 97.6875 22.9688C97.9792 23.3021 98.3125 23.5729 98.6875 23.7812C97.4583 23.7188 96.4792 23.6875 95.75 23.6875H94.625C94.2917 23.6875 93.8646 23.7083 93.3438 23.75C92.9062 23.7917 92.3542 23.8333 91.6875 23.875C91.0208 23.9167 90.2188 23.9792 89.2812 24.0625C89.7604 23.5417 90.1354 23.0417 90.4062 22.5625C90.6771 22.0833 90.8958 21.6667 91.0625 21.3125C91.25 20.8958 91.375 20.5 91.4375 20.125C91.5208 19.5833 91.5833 18.9167 91.625 18.125C91.6875 17.3125 91.7292 16.4479 91.75 15.5312C91.7708 14.5938 91.7708 13.6458 91.75 12.6875C91.75 11.7083 91.7292 10.7708 91.6875 9.875C91.6458 8.97917 91.5833 8.16667 91.5 7.4375C91.4375 6.70833 91.3542 6.125 91.25 5.6875C91.1875 5.41667 91.0625 5.11458 90.875 4.78125C90.7083 4.48958 90.4792 4.15625 90.1875 3.78125C89.9167 3.38542 89.5521 2.94792 89.0938 2.46875Z" fill="white"/>
</svg>
